<?xml version="1.0" standalone="no"?>
<!DOCTYPE svg PUBLIC "-//W3C//DTD SVG 20010904//EN"
 "http://www.w3.org/TR/2001/REC-SVG-20010904/DTD/svg10.dtd">
<svg version="1.0" xmlns="http://www.w3.org/2000/svg"
 width="512.000000pt" height="512.000000pt" viewBox="0 0 512.000000 512.000000"
 preserveAspectRatio="xMidYMid meet">
<metadata>
Created by potrace 1.14, written by Peter Selinger 2001-2017
</metadata>
<g transform="translate(0.000000,512.000000) scale(0.100000,-0.100000)"
fill="#000000" stroke="none">
<path d="M2195 5059 c-92 -7 -165 -22 -245 -51 -74 -26 -157 -67 -171 -84 -6
-8 -16 -14 -22 -14 -16 0 -94 -61 -149 -117 -79 -82 -127 -150 -175 -250 l-44
-93 -330 0 c-256 0 -329 -3 -330 -12 -1 -7 -2 -156 -3 -330 l-1 -317 -83 -41
c-46 -22 -117 -65 -158 -96 -68 -51 -176 -161 -198 -202 -5 -9 -12 -19 -16
-22 -17 -13 -91 -174 -114 -247 -33 -107 -40 -171 -40 -387 l-1 -180 178 1
c176 0 178 0 173 -21 -20 -72 -38 -218 -40 -326 -8 -447 157 -856 469 -1165
161 -159 220 -203 391 -289 160 -80 364 -142 726 -220 13 -3 43 -10 68 -17 25
-6 52 -12 60 -14 8 -2 152 -35 320 -74 168 -39 314 -73 325 -75 11 -3 61 -14
110 -26 50 -12 97 -23 105 -25 8 -2 160 -37 337 -79 177 -42 337 -78 354 -81
18 -3 35 -8 39 -10 12 -8 157 -19 236 -18 379 5 746 238 920 584 81 162 113
297 114 484 0 106 -4 137 -51 341 -16 73 -31 140 -33 150 -2 11 -9 37 -14 59
-6 22 -13 51 -16 65 -2 14 -39 171 -81 350 -41 179 -96 415 -121 525 -26 110
-55 236 -65 280 -10 44 -28 121 -40 170 -11 50 -22 97 -24 105 -2 8 -13 58
-25 110 -38 170 -76 291 -131 408 -16 35 -29 66 -29 68 0 3 -16 30 -35 60 -19
30 -35 57 -35 60 0 2 -4 10 -10 17 -5 7 -38 50 -72 97 -72 99 -217 248 -303
310 -33 24 -62 47 -65 50 -13 17 -189 116 -263 147 -83 36 -209 80 -250 89
-175 38 -240 45 -397 46 -120 0 -240 -12 -325 -32 -22 -5 -43 -10 -47 -10 -5
0 -8 79 -8 175 0 96 -3 175 -7 176 -38 4 -295 3 -358 -2z"/>
</g>
</svg>
